# xmcd
#
# Track frame offsets:
#	150
#	14732
#	35466
#	55069
#	72884
#	91559
#	109411
#	130043
#	148310
#	166050
#	183100
#
# Disc length: 2674 seconds
#
# Revision: 0
# Processed by: cddbd v1.5.2PL0 Copyright (c) Steve Scherf et al.
# Submitted via: EasyCDDAExtractor 10.2.0.1
#
DISCID=8f0a700b
DTITLE=Crissy Collins - Faith in Progress
DYEAR=2005
DGENRE=Gospel
TTITLE0=Truth
TTITLE1=He Said She Said
TTITLE2=Unconditional Love
TTITLE3=Faith
TTITLE4=Will Be Done
TTITLE5=Round and Round
TTITLE6=Hold On
TTITLE7=Father
TTITLE8=Slow Down
TTITLE9=The Blood
TTITLE10=Savior
EXTD=
EXTT0=
EXTT1=
EXTT2=
EXTT3=
EXTT4=
EXTT5=
EXTT6=
EXTT7=
EXTT8=
EXTT9=
EXTT10=
PLAYORDER=
